<svg data-v-fde0c5aa="" xmlns="http://www.w3.org/2000/svg" viewBox="0 0 300 300" class="iconLeftSlogan"><!----><defs data-v-fde0c5aa=""><!----></defs><rect data-v-fde0c5aa="" fill="#111f51" x="0" y="0" width="300px" height="300px" class="logo-background-square"></rect><defs data-v-fde0c5aa=""><!----></defs><g data-v-fde0c5aa="" id="92aa84bc-0182-4e44-986f-5cb1a316c775" fill="#ffffff" transform="matrix(1.811178382257582,0,0,1.811178382257582,123.25602771341217,114.01864648651534)"><path d="M4.25 10.47L4.25 10.47L4.25 10.47Q3.41 10.47 2.94 10.68L2.94 10.68L2.94 10.68Q2.08 11.08 2.08 11.73L2.08 11.73L2.08 11.73Q2.08 12.08 2.28 12.28L2.28 12.28L2.28 12.28Q2.80 12.84 3.66 13.22L3.66 13.22L3.66 13.22Q4.17 13.45 5.14 13.80L5.14 13.80L5.14 13.80Q6.12 14.16 6.46 14.31L6.46 14.31L6.46 14.31Q6.80 14.47 7.22 14.74L7.22 14.74L7.22 14.74Q7.64 15.00 7.92 15.29L7.92 15.29L7.92 15.29Q8.57 15.98 8.57 16.87L8.57 16.87L8.57 16.87Q8.57 17.51 8.23 18.02L8.23 18.02L8.23 18.02Q7.88 18.53 7.31 18.84L7.31 18.84L7.31 18.84Q6.13 19.48 4.61 19.48L4.61 19.48L4.61 19.48Q2.58 19.48 1.29 18.77L1.29 18.77L1.29 18.77Q0.85 18.53 0.58 18.16L0.58 18.16L0.58 18.16Q0.31 17.78 0.31 17.35L0.31 17.35L0.31 17.35Q0.31 16.93 0.57 16.68L0.57 16.68L0.57 16.68Q0.83 16.43 1.31 16.43L1.31 16.43L1.31 16.43Q1.79 16.43 2.06 16.77L2.06 16.77L2.06 16.77Q2.33 17.10 2.33 17.64L2.33 17.64L2.33 17.64Q2.33 17.86 2.29 18.10L2.29 18.10L2.29 18.10Q3.33 18.63 4.51 18.63L4.51 18.63L4.51 18.63Q5.56 18.63 6.30 18.32L6.30 18.32L6.30 18.32Q7.14 17.96 7.14 17.06L7.14 17.06L7.14 17.06Q7.14 16.13 5.26 15.41L5.26 15.41L5.26 15.41Q4.95 15.29 4.29 15.07L4.29 15.07L4.29 15.07Q2.95 14.60 2.28 14.25L2.28 14.25L2.28 14.25Q0.62 13.37 0.62 12.05L0.62 12.05L0.62 12.05Q0.62 11.43 0.95 10.94L0.95 10.94L0.95 10.94Q1.29 10.46 1.85 10.18L1.85 10.18L1.85 10.18Q2.98 9.62 4.50 9.62L4.50 9.62L4.50 9.62Q6.28 9.62 7.38 10.21L7.38 10.21L7.38 10.21Q7.77 10.42 8.01 10.76L8.01 10.76L8.01 10.76Q8.25 11.10 8.25 11.53L8.25 11.53L8.25 11.53Q8.25 11.96 7.95 12.23L7.95 12.23L7.95 12.23Q7.66 12.51 7.22 12.51L7.22 12.51L7.22 12.51Q6.78 12.51 6.58 12.47L6.58 12.47L6.58 12.47Q6.49 11.27 6.02 10.87L6.02 10.87L6.02 10.87Q5.54 10.47 4.25 10.47ZM15.09 17.99L15.09 17.99L15.09 17.99Q15.40 17.99 15.40 18.27L15.40 18.27L15.40 18.27Q15.40 18.43 15.31 18.53L15.31 18.53L15.31 18.53Q14.40 19.50 12.69 19.50L12.69 19.50L12.69 19.50Q10.99 19.50 10.00 18.58L10.00 18.58L10.00 18.58Q9.00 17.66 9.00 16.14L9.00 16.14L9.00 16.14Q9.00 15.15 9.48 14.35L9.48 14.35L9.48 14.35Q9.97 13.54 10.80 13.09L10.80 13.09L10.80 13.09Q11.63 12.64 12.64 12.64L12.64 12.64L12.64 12.64Q14.05 12.64 14.82 13.37L14.82 13.37L14.82 13.37Q15.22 13.76 15.22 14.28L15.22 14.28L15.22 14.28Q15.22 14.59 14.97 14.80L14.97 14.80L14.97 14.80Q14.71 15.01 14.36 15.01L14.36 15.01L14.36 15.01Q14 15.01 13.84 14.95L13.84 14.95L13.84 14.95Q13.79 14.18 13.52 13.76L13.52 13.76L13.52 13.76Q13.25 13.35 12.62 13.35L12.62 13.35L12.62 13.35Q11.58 13.35 10.99 14.01L10.99 14.01L10.99 14.01Q10.40 14.68 10.40 15.80L10.40 15.80L10.40 15.80Q10.40 16.92 11.15 17.75L11.15 17.75L11.15 17.75Q11.91 18.57 13.06 18.57L13.06 18.57L13.06 18.57Q13.73 18.57 14.72 18.09L14.72 18.09L14.72 18.09Q14.93 17.99 15.09 17.99ZM19.46 19.49L19.46 19.49L19.46 19.49Q17.91 19.49 16.97 18.52L16.97 18.52L16.97 18.52Q16.02 17.54 16.02 16.04L16.02 16.04L16.02 16.04Q16.02 15.05 16.52 14.27L16.52 14.27L16.52 14.27Q17.02 13.49 17.87 13.07L17.87 13.07L17.87 13.07Q18.72 12.66 19.77 12.66L19.77 12.66L19.77 12.66Q21.27 12.66 22.25 13.60L22.25 13.60L22.25 13.60Q23.23 14.53 23.23 16.02L23.23 16.02L23.23 16.02Q23.23 17.04 22.73 17.84L22.73 17.84L22.73 17.84Q22.22 18.63 21.37 19.06L21.37 19.06L21.37 19.06Q20.51 19.49 19.46 19.49ZM19.74 18.73L19.74 18.73L19.74 18.73Q20.75 18.73 21.32 18.04L21.32 18.04L21.32 18.04Q21.90 17.35 21.90 16.20L21.90 16.20L21.90 16.20Q21.90 15.05 21.24 14.22L21.24 14.22L21.24 14.22Q20.58 13.38 19.55 13.38L19.55 13.38L19.55 13.38Q18.53 13.38 17.97 14.09L17.97 14.09L17.97 14.09Q17.42 14.79 17.42 15.93L17.42 15.93L17.42 15.93Q17.42 17.08 18.07 17.90L18.07 17.90L18.07 17.90Q18.72 18.73 19.74 18.73ZM24.41 17.48L24.41 13.66L23.99 13.67L23.99 13.67Q23.74 13.67 23.63 13.62L23.63 13.62L23.63 13.62Q23.51 13.57 23.51 13.42L23.51 13.42L23.51 13.42Q23.51 13.26 23.64 13.14L23.64 13.14L23.64 13.14Q23.78 13.01 23.95 12.94L23.95 12.94L23.95 12.94Q24.42 12.75 24.51 12.62L24.51 12.62L24.51 12.62Q24.60 12.48 24.79 12.03L24.79 12.03L24.79 12.03Q25.25 10.90 25.55 10.90L25.55 10.90L25.55 10.90Q25.71 10.90 25.73 11.24L25.73 11.24L25.73 11.24Q25.76 11.58 25.76 11.76L25.76 11.76L25.76 11.76Q25.76 11.94 25.76 12.29L25.76 12.29L25.76 12.29Q25.75 12.64 25.75 12.78L25.75 12.78L27.38 12.78L27.38 12.78Q27.62 12.78 27.78 12.90L27.78 12.90L27.78 12.90Q27.95 13.02 27.95 13.22L27.95 13.22L27.95 13.22Q27.95 13.42 27.78 13.53L27.78 13.53L27.78 13.53Q27.62 13.64 27.38 13.64L27.38 13.64L25.75 13.64L25.74 17.13L25.74 17.13Q25.74 18.61 26.49 18.61L26.49 18.61L26.49 18.61Q26.69 18.61 27.10 18.49L27.10 18.49L27.10 18.49Q27.50 18.36 27.62 18.36L27.62 18.36L27.62 18.36Q27.90 18.36 27.90 18.68L27.90 18.68L27.90 18.68Q27.90 18.94 27.24 19.19L27.24 19.19L27.24 19.19Q26.58 19.44 25.89 19.44L25.89 19.44L25.89 19.44Q25.20 19.44 24.80 18.90L24.80 18.90L24.80 18.90Q24.41 18.36 24.41 17.48L24.41 17.48ZM29.46 17.48L29.46 13.66L29.05 13.67L29.05 13.67Q28.79 13.67 28.68 13.62L28.68 13.62L28.68 13.62Q28.56 13.57 28.56 13.42L28.56 13.42L28.56 13.42Q28.56 13.26 28.69 13.14L28.69 13.14L28.69 13.14Q28.83 13.01 29.00 12.94L29.00 12.94L29.00 12.94Q29.47 12.75 29.56 12.62L29.56 12.62L29.56 12.62Q29.65 12.48 29.84 12.03L29.84 12.03L29.84 12.03Q30.30 10.90 30.60 10.90L30.60 10.90L30.60 10.90Q30.76 10.90 30.79 11.24L30.79 11.24L30.79 11.24Q30.81 11.58 30.81 11.76L30.81 11.76L30.81 11.76Q30.82 11.94 30.81 12.29L30.81 12.29L30.81 12.29Q30.80 12.64 30.80 12.78L30.80 12.78L32.43 12.78L32.43 12.78Q32.67 12.78 32.83 12.90L32.83 12.90L32.83 12.90Q33.00 13.02 33.00 13.22L33.00 13.22L33.00 13.22Q33.00 13.42 32.84 13.53L32.84 13.53L32.84 13.53Q32.68 13.64 32.44 13.64L32.44 13.64L30.80 13.64L30.80 17.13L30.80 17.13Q30.80 18.61 31.54 18.61L31.54 18.61L31.54 18.61Q31.75 18.61 32.15 18.49L32.15 18.49L32.15 18.49Q32.55 18.36 32.68 18.36L32.68 18.36L32.68 18.36Q32.96 18.36 32.96 18.68L32.96 18.68L32.96 18.68Q32.96 18.94 32.30 19.19L32.30 19.19L32.30 19.19Q31.64 19.44 30.94 19.44L30.94 19.44L30.94 19.44Q30.25 19.44 29.86 18.90L29.86 18.90L29.86 18.90Q29.46 18.36 29.46 17.48L29.46 17.48ZM37.84 18.14L37.84 10.88L37.84 10.88Q37.84 10.75 37.26 10.60L37.26 10.60L37.26 10.60Q36.69 10.45 36.69 10.33L36.69 10.33L36.69 10.33Q36.69 9.71 38.10 9.71L38.10 9.71L38.71 9.72L38.71 9.72Q38.82 9.72 39.03 9.90L39.03 9.90L39.03 9.90Q39.23 10.08 39.34 10.27L39.34 10.27L42.94 16.75L42.94 16.75Q44.01 15.03 46.40 10.99L46.40 10.99L46.40 11.00L46.40 11.00Q46.44 10.94 46.56 10.69L46.56 10.69L46.56 10.69Q46.69 10.45 46.77 10.33L46.77 10.33L46.77 10.33Q46.85 10.21 46.98 10.04L46.98 10.04L46.98 10.04Q47.25 9.72 47.64 9.72L47.64 9.72L48.14 9.71L48.14 9.71Q49.39 9.71 49.39 10.33L49.39 10.33L49.39 10.33Q49.39 10.54 48.80 10.61L48.80 10.61L48.80 10.61Q48.21 10.67 48.21 10.88L48.21 10.88L48.21 18.14L48.21 18.14Q48.21 18.27 48.51 18.36L48.51 18.36L48.51 18.36Q48.80 18.44 49.10 18.52L49.10 18.52L49.10 18.52Q49.39 18.59 49.39 18.70L49.39 18.70L49.39 18.70Q49.39 19.33 48.04 19.33L48.04 19.33L47.50 19.31L46.93 19.33L46.93 19.33Q45.59 19.33 45.59 18.70L45.59 18.70L45.59 18.70Q45.59 18.55 45.88 18.49L45.88 18.49L45.88 18.49Q46.16 18.43 46.45 18.37L46.45 18.37L46.45 18.37Q46.73 18.31 46.73 18.14L46.73 18.14L46.73 12.04L46.73 12.04Q46.60 12.27 45.55 14.18L45.55 14.18L45.55 14.18Q43.79 17.38 43.16 18.13L43.16 18.13L43.16 18.12L43.16 18.12Q42.96 18.31 42.80 18.31L42.80 18.31L42.80 18.31Q42.64 18.31 42.53 18.28L42.53 18.28L42.53 18.28Q42.43 18.25 42.35 18.17L42.35 18.17L42.35 18.17Q42.27 18.09 42.23 18.04L42.23 18.04L42.23 18.04Q42.19 17.99 42.12 17.86L42.12 17.86L42.12 17.86Q42.05 17.73 42.03 17.68L42.03 17.68L39.04 12.78L39.04 18.14L39.04 18.14Q39.04 18.27 39.33 18.36L39.33 18.36L39.33 18.36Q39.63 18.44 39.93 18.52L39.93 18.52L39.93 18.52Q40.22 18.59 40.22 18.70L40.22 18.70L40.22 18.70Q40.22 19.32 38.95 19.32L38.95 19.32L38.45 19.31L37.93 19.33L37.93 19.33Q36.69 19.33 36.69 18.70L36.69 18.70L36.69 18.70Q36.69 18.54 36.98 18.48L36.98 18.48L36.98 18.48Q37.26 18.43 37.55 18.37L37.55 18.37L37.55 18.37Q37.84 18.31 37.84 18.14L37.84 18.14ZM51.22 10.74L51.22 10.74L51.22 10.74Q51.22 10.44 51.51 10.18L51.51 10.18L51.51 10.18Q51.80 9.91 52.15 9.91L52.15 9.91L52.15 9.91Q52.49 9.91 52.82 10.12L52.82 10.12L52.82 10.12Q53.14 10.34 53.14 10.68L53.14 10.68L53.14 10.68Q53.14 11.03 52.87 11.27L52.87 11.27L52.87 11.27Q52.60 11.50 52.20 11.50L52.20 11.50L52.20 11.50Q51.80 11.50 51.51 11.29L51.51 11.29L51.51 11.29Q51.22 11.07 51.22 10.74ZM52.65 19.32L52.65 19.32L52.06 19.33L52.06 19.33Q51.17 19.33 50.96 19.05L50.96 19.05L50.96 19.05Q50.86 18.93 50.86 18.75L50.86 18.75L50.86 18.75Q50.86 18.58 51.00 18.51L51.00 18.51L51.00 18.51Q51.13 18.44 51.30 18.44L51.30 18.44L51.30 18.44Q51.47 18.43 51.60 18.33L51.60 18.33L51.60 18.33Q51.74 18.23 51.74 18.01L51.74 18.01L51.74 14.33L51.74 14.33Q51.74 13.71 51.26 13.67L51.26 13.67L51.26 13.67Q51.21 13.66 51.13 13.65L51.13 13.65L51.13 13.65Q51.06 13.64 51.02 13.64L51.02 13.64L51.02 13.64Q50.99 13.64 50.94 13.63L50.94 13.63L50.94 13.63Q50.89 13.62 50.86 13.60L50.86 13.60L50.86 13.60Q50.84 13.59 50.81 13.57L50.81 13.57L50.81 13.57Q50.76 13.54 50.76 13.37L50.76 13.37L50.76 13.37Q50.76 13.21 50.97 13.04L50.97 13.04L50.97 13.04Q51.36 12.73 52.01 12.73L52.01 12.73L52.01 12.73Q52.61 12.73 52.72 12.78L52.72 12.78L52.72 12.78Q52.82 12.82 52.90 12.88L52.90 12.88L52.90 12.88Q53.04 12.97 53.04 13.24L53.04 13.24L53.04 18.01L53.04 18.01Q53.04 18.41 53.48 18.43L53.48 18.43L53.48 18.43Q53.92 18.46 53.92 18.79L53.92 18.79L53.92 18.79Q53.92 19.16 53.51 19.25L53.51 19.25L53.51 19.25Q53.20 19.32 52.65 19.32ZM56.93 19.32L56.93 19.32L56.34 19.33L56.34 19.33Q55.45 19.33 55.23 19.05L55.23 19.05L55.23 19.05Q55.14 18.93 55.14 18.75L55.14 18.75L55.14 18.75Q55.14 18.58 55.28 18.51L55.28 18.51L55.28 18.51Q55.41 18.44 55.58 18.44L55.58 18.44L55.58 18.44Q55.74 18.43 55.88 18.33L55.88 18.33L55.88 18.33Q56.01 18.23 56.01 18.01L56.01 18.01L56.01 10.79L56.01 10.79Q56.01 10.17 55.52 10.12L55.52 10.12L55.52 10.12Q55.47 10.12 55.40 10.11L55.40 10.11L55.40 10.11Q55.32 10.10 55.29 10.10L55.29 10.10L55.29 10.10Q55.25 10.10 55.20 10.09L55.20 10.09L55.20 10.09Q55.15 10.08 55.13 10.06L55.13 10.06L55.13 10.06Q55.10 10.05 55.08 10.03L55.08 10.03L55.08 10.03Q55.04 9.99 55.04 9.83L55.04 9.83L55.04 9.83Q55.04 9.67 55.25 9.50L55.25 9.50L55.25 9.50Q55.63 9.19 56.28 9.19L56.28 9.19L56.28 9.19Q56.97 9.19 57.09 9.27L57.09 9.27L57.09 9.27Q57.32 9.43 57.32 9.70L57.32 9.70L57.32 18.01L57.32 18.01Q57.32 18.41 57.76 18.43L57.76 18.43L57.76 18.43Q58.20 18.46 58.20 18.79L58.20 18.79L58.20 18.79Q58.20 19.16 57.79 19.25L57.79 19.25L57.79 19.25Q57.48 19.32 56.93 19.32ZM61.06 19.32L61.06 19.32L60.47 19.33L60.47 19.33Q59.58 19.33 59.36 19.05L59.36 19.05L59.36 19.05Q59.27 18.93 59.27 18.75L59.27 18.75L59.27 18.75Q59.27 18.58 59.40 18.51L59.40 18.51L59.40 18.51Q59.54 18.44 59.71 18.44L59.71 18.44L59.71 18.44Q59.87 18.43 60.01 18.33L60.01 18.33L60.01 18.33Q60.14 18.23 60.14 18.01L60.14 18.01L60.14 10.79L60.14 10.79Q60.14 10.17 59.65 10.12L59.65 10.12L59.65 10.12Q59.60 10.12 59.53 10.11L59.53 10.11L59.53 10.11Q59.45 10.10 59.42 10.10L59.42 10.10L59.42 10.10Q59.38 10.10 59.33 10.09L59.33 10.09L59.33 10.09Q59.28 10.08 59.26 10.06L59.26 10.06L59.26 10.06Q59.23 10.05 59.21 10.03L59.21 10.03L59.21 10.03Q59.17 9.99 59.17 9.83L59.17 9.83L59.17 9.83Q59.17 9.67 59.38 9.50L59.38 9.50L59.38 9.50Q59.76 9.19 60.41 9.19L60.41 9.19L60.41 9.19Q61.10 9.19 61.22 9.27L61.22 9.27L61.22 9.27Q61.45 9.43 61.45 9.70L61.45 9.70L61.45 18.01L61.45 18.01Q61.45 18.41 61.89 18.43L61.89 18.43L61.89 18.43Q62.33 18.46 62.33 18.79L62.33 18.79L62.33 18.79Q62.33 19.16 61.92 19.25L61.92 19.25L61.92 19.25Q61.61 19.32 61.06 19.32ZM63.99 18.57L63.99 18.57L63.99 18.57Q63.04 17.64 63.04 16.11L63.04 16.11L63.04 16.11Q63.04 14.57 63.99 13.61L63.99 13.61L63.99 13.61Q64.95 12.65 66.42 12.65L66.42 12.65L66.42 12.65Q67.59 12.65 68.40 13.40L68.40 13.40L68.40 13.40Q69.20 14.16 69.20 15.30L69.20 15.30L69.20 15.30Q69.20 15.85 68.33 15.85L68.33 15.85L64.37 15.85L64.37 15.85Q64.38 16.96 65.08 17.72L65.08 17.72L65.08 17.72Q65.79 18.48 66.86 18.48L66.86 18.48L66.86 18.48Q67.57 18.48 68.24 18.06L68.24 18.06L68.24 18.06Q68.60 17.84 68.70 17.84L68.70 17.84L68.70 17.84Q68.80 17.84 68.92 17.94L68.92 17.94L68.92 17.94Q69.05 18.04 69.05 18.18L69.05 18.18L69.05 18.18Q69.05 18.56 68.57 18.88L68.57 18.88L68.57 18.88Q68.09 19.20 67.50 19.35L67.50 19.35L67.50 19.35Q66.92 19.50 66.49 19.50L66.49 19.50L66.49 19.50Q64.93 19.50 63.99 18.57ZM67.94 15.13L67.94 15.13L67.94 15.13Q67.93 14.35 67.53 13.86L67.53 13.86L67.53 13.86Q67.14 13.36 66.37 13.36L66.37 13.36L66.37 13.36Q65.61 13.36 65.04 13.91L65.04 13.91L65.04 13.91Q64.47 14.46 64.44 15.16L64.44 15.16L66.04 15.16L66.04 15.16Q67.10 15.16 67.94 15.13ZM72.00 19.32L72.00 19.32L71.42 19.33L71.42 19.33Q70.52 19.33 70.31 19.05L70.31 19.05L70.31 19.05Q70.21 18.93 70.21 18.75L70.21 18.75L70.21 18.75Q70.21 18.58 70.35 18.51L70.35 18.51L70.35 18.51Q70.49 18.44 70.65 18.44L70.65 18.44L70.65 18.44Q70.82 18.43 70.96 18.33L70.96 18.33L70.96 18.33Q71.09 18.23 71.09 18.01L71.09 18.01L71.09 14.64L71.09 14.64Q71.09 14.03 70.95 13.88L70.95 13.88L70.95 13.88Q70.80 13.74 70.70 13.70L70.70 13.70L70.70 13.70Q70.60 13.66 70.39 13.60L70.39 13.60L70.39 13.60Q70.18 13.54 70.04 13.47L70.04 13.47L70.04 13.47Q69.91 13.41 69.91 13.29L69.91 13.29L69.91 13.29Q69.91 12.74 71.38 12.74L71.38 12.74L71.38 12.74Q72.00 12.74 72.17 12.96L72.17 12.96L72.17 12.96Q72.34 13.17 72.34 13.95L72.34 13.95L72.34 13.95Q72.57 13.36 73.11 13.03L73.11 13.03L73.11 13.03Q73.64 12.69 74.21 12.69L74.21 12.69L74.21 12.69Q74.77 12.69 75.14 12.94L75.14 12.94L75.14 12.94Q75.50 13.18 75.50 13.55L75.50 13.55L75.50 13.55Q75.50 13.92 75.26 14.15L75.26 14.15L75.26 14.15Q75.02 14.37 74.68 14.37L74.68 14.37L74.68 14.37Q74.33 14.37 74.08 14.18L74.08 14.18L74.08 14.18Q73.83 14 73.75 13.71L73.75 13.71L73.75 13.71Q73.58 13.68 73.46 13.68L73.46 13.68L73.46 13.68Q72.39 13.68 72.39 16.13L72.39 16.13L72.39 18.01L72.39 18.01Q72.39 18.41 72.83 18.43L72.83 18.43L72.83 18.43Q73.27 18.46 73.27 18.79L73.27 18.79L73.27 18.79Q73.27 19.16 72.86 19.25L72.86 19.25L72.86 19.25Q72.55 19.32 72.00 19.32Z"></path></g><defs data-v-fde0c5aa=""><!----></defs><g data-v-fde0c5aa="" id="2fdd2bb5-7283-4fb9-a741-f01d3a765b49" stroke="none" fill="#F6575E" transform="matrix(2.213046656757194,0,0,2.213046656757194,40,114.5912534918849)"><path d="M16 19.586l7.496-12.954H8.504zM7.496 12.414L0 25.368h14.992zM24.504 12.414l-7.496 12.954H32z"></path></g><defs data-v-fde0c5aa=""><!----></defs><g data-v-fde0c5aa="" id="67e21f8d-def3-4b7a-8b50-c006e79bee73" fill="#ffffff" transform="matrix(0.4930040785314981,0,0,0.4930040785314981,123.59564117207543,158.30131642263856)"><path d="M1.75 4.65C1.75 4.03 2.11 3.08 4.21 3.08C5.91 3.08 6.69 3.82 6.80 4.75L7.88 4.75C7.80 3.36 6.68 2.10 4.21 2.10C1.89 2.10 0.73 3.15 0.73 4.66C0.73 7.84 7.07 6.69 7.07 8.96C7.07 10.05 6.09 10.60 4.52 10.60C2.91 10.60 1.61 10.05 1.54 8.71L0.45 8.71C0.59 10.37 1.71 11.59 4.45 11.59C6.73 11.59 8.12 10.64 8.12 8.92C8.12 5.68 1.75 6.80 1.75 4.65ZM20.86 2.10C18.05 2.10 16.16 4.21 16.16 6.85C16.16 9.48 18.05 11.59 20.86 11.59C23.67 11.59 25.56 9.48 25.56 6.85C25.56 4.21 23.67 2.10 20.86 2.10ZM20.86 10.57C18.61 10.57 17.21 8.93 17.21 6.85C17.21 4.76 18.61 3.12 20.86 3.12C23.11 3.12 24.51 4.76 24.51 6.85C24.51 8.93 23.11 10.57 20.86 10.57ZM40.94 3.22L40.94 2.21L34.24 2.21L34.24 11.48L35.29 11.48L35.29 7.46L40.32 7.46L40.32 6.44L35.29 6.44L35.29 3.22ZM55.99 2.21L48.47 2.21L48.47 3.22L51.70 3.22L51.70 11.48L52.75 11.48L52.75 3.22L55.99 3.22ZM69.89 3.70L72.39 11.48L73.58 11.48L76.47 2.21L75.36 2.21L72.98 10.00L70.49 2.21L69.29 2.21L66.79 10.00L64.41 2.21L63.31 2.21L66.19 11.48L67.38 11.48ZM88.42 2.21L87.11 2.21L83.17 11.48L84.34 11.48L85.47 8.79L90.06 8.79L91.20 11.48L92.36 11.48ZM85.88 7.83L87.77 3.30L89.66 7.83ZM101.58 7.92L104.80 7.92L107.04 11.48L108.29 11.48L105.85 7.74C106.89 7.50 108.09 6.90 108.09 5.11C108.09 3.35 106.88 2.21 104.97 2.21L100.53 2.21L100.53 11.48L101.58 11.48ZM101.58 3.21L104.85 3.21C106.16 3.21 107.04 3.93 107.04 5.11C107.04 6.55 105.78 6.93 104.79 6.93L101.58 6.93ZM123.72 3.22L123.72 2.21L116.90 2.21L116.90 11.48L123.72 11.48L123.72 10.47L117.95 10.47L117.95 7.35L123.10 7.35L123.10 6.33L117.95 6.33L117.95 3.22ZM146.30 2.21L142.39 2.21L142.39 11.48L146.30 11.48C148.51 11.48 150.56 9.74 150.56 6.85C150.56 3.95 148.51 2.21 146.30 2.21ZM146.26 10.49L143.44 10.49L143.44 3.21L146.26 3.21C148.23 3.21 149.51 4.86 149.51 6.85C149.51 8.83 148.23 10.49 146.26 10.49ZM166.07 3.22L166.07 2.21L159.25 2.21L159.25 11.48L166.07 11.48L166.07 10.47L160.30 10.47L160.30 7.35L165.45 7.35L165.45 6.33L160.30 6.33L160.30 3.22ZM181.23 2.21L178.02 10.29L174.82 2.21L173.67 2.21L177.42 11.48L178.63 11.48L182.38 2.21ZM197.37 3.22L197.37 2.21L190.55 2.21L190.55 11.48L197.37 11.48L197.37 10.47L191.60 10.47L191.60 7.35L196.76 7.35L196.76 6.33L191.60 6.33L191.60 3.22ZM206.07 2.21L206.07 11.48L212.17 11.48L212.17 10.47L207.12 10.47L207.12 2.21ZM224.24 2.10C221.42 2.10 219.53 4.21 219.53 6.85C219.53 9.48 221.42 11.59 224.24 11.59C227.05 11.59 228.94 9.48 228.94 6.85C228.94 4.21 227.05 2.10 224.24 2.10ZM224.24 10.57C221.98 10.57 220.58 8.93 220.58 6.85C220.58 4.76 221.98 3.12 224.24 3.12C226.49 3.12 227.89 4.76 227.89 6.85C227.89 8.93 226.49 10.57 224.24 10.57ZM238.67 8.18L241.79 8.18C243.77 8.18 244.99 7.03 244.99 5.19C244.99 3.37 243.77 2.21 241.79 2.21L237.62 2.21L237.62 11.48L238.67 11.48ZM241.72 3.21C243.18 3.21 243.94 3.96 243.94 5.19C243.94 6.44 243.18 7.20 241.72 7.20L238.67 7.20L238.67 3.21ZM260.23 3.22L260.23 2.21L253.41 2.21L253.41 11.48L260.23 11.48L260.23 10.47L254.46 10.47L254.46 7.35L259.62 7.35L259.62 6.33L254.46 6.33L254.46 3.22ZM269.98 7.92L273.20 7.92L275.44 11.48L276.68 11.48L274.25 7.74C275.28 7.50 276.49 6.90 276.49 5.11C276.49 3.35 275.27 2.21 273.36 2.21L268.93 2.21L268.93 11.48L269.98 11.48ZM269.98 3.21L273.24 3.21C274.55 3.21 275.44 3.93 275.44 5.11C275.44 6.55 274.18 6.93 273.18 6.93L269.98 6.93Z"></path></g></svg>